# xmcd CD database file
#
# Track frame offsets:
#	150
#	16801
#	33609
#	49620
#	65223
#	80513
#	105851
#	123443
#	140227
#	160550
#	178515
#	197239
#	214967
#	233353
#	250684
#	269098
#	286470
#
# Disc length: 4109 seconds
#
# Revision: 4
# Processed by: cddbd v1.5.2PL0 Copyright (c) Steve Scherf et al.
# Submitted via: jetAudio 5
#
DISCID=f3100b11
DTITLE=Various Artist - Totally Country Vol. 4
DYEAR=1900
DGENRE=
TTITLE0=Alan Jackson - That'd Be Alright
TTITLE1=Gretchen Wilson - Redneck Woman
TTITLE2=Kenny Chesney - No Shoes, No Shirt, No Problems
TTITLE3=Blake Shelton - Some Beach
TTITLE4=Big and Rich - Save A Horse (Ride A Cowboy)
TTITLE5=Toby Keith - I Love This Bar
TTITLE6=Joe Nichols - Brokenheartsville
TTITLE7=Brad Paisley - Little Moments
TTITLE8=John Michael Montgomery - Letters From Home
TTITLE9=Gary Allan - Tough Little Boys
TTITLE10=George Strait - Desperately
TTITLE11=Lonestar - Let's Be Us Again
TTITLE12=Sara Evans - Perfect
TTITLE13=Los Lonely Boys - Heaven
TTITLE14=Clay Walker - I Can't Sleep
TTITLE15=Buddy Jewell - Help Pour Out The Rain (Lacey's Song)
TTITLE16=Montgomery Gentry - Hell Yeah
EXTD=
EXTT0=
EXTT1=
EXTT2=
EXTT3=
EXTT4=
EXTT5=
EXTT6=
EXTT7=
EXTT8=
EXTT9=
EXTT10=
EXTT11=
EXTT12=
EXTT13=
EXTT14=
EXTT15=
EXTT16=
PLAYORDER=
